# xmcd
#
# Track frame offsets:
#	150
#	11160
#	31298
#	74949
#	102176
#	115426
#	126716
#	142196
#	157662
#	171295
#	180735
#	197702
#	209671
#	230329
#	253199
#	267652
#	286851
#
# Disc length: 4000 seconds
#
# Revision: 1
# Processed by: cddbd v1.4PL0 Copyright (c) Steve Scherf et al.
# Submitted via: audiograbber 1.81.02
#
DISCID=130f9e11
DTITLE=Various Artist - New Found Land
DYEAR=1900
DGENRE=Ambient
TTITLE0=Yellow6 - Marble 1
TTITLE1=Yellow6 - Quita Essentia
TTITLE2=Yellow6 - Silhouette
TTITLE3=Yellow6 - Centraal
TTITLE4=Yellow6 - Marble 2
TTITLE5=Rothko - Halftones and Metatones 1
TTITLE6=Rothko - Halftones and Metatones 2
TTITLE7=Rothko - Halftones and Metatones 3
TTITLE8=Rothko - Halftones and Metatones 4
TTITLE9=Rothko - Halftones and Metatones 5
TTITLE10=Rothko - Halftones and Metatones 6
TTITLE11=Rothko - Halftones and Metatones 7
TTITLE12=Landing - Introductions to Clouds
TTITLE13=Landing - With You
TTITLE14=Landing - Disappear
TTITLE15=Landing - Through the Twilight
TTITLE16=Landing - Mepeop
EXTD=
EXTT0=
EXTT1=
EXTT2=
EXTT3=
EXTT4=
EXTT5=
EXTT6=
EXTT7=
EXTT8=
EXTT9=
EXTT10=
EXTT11=
EXTT12=
EXTT13=
EXTT14=
EXTT15=
EXTT16=
PLAYORDER=
